<?xml version="1.0" standalone="no"?>
<!DOCTYPE svg PUBLIC "-//W3C//DTD SVG 20010904//EN"
 "http://www.w3.org/TR/2001/REC-SVG-20010904/DTD/svg10.dtd">
<svg version="1.0" xmlns="http://www.w3.org/2000/svg"
 width="200.000000pt" height="100.000000pt" viewBox="0 0 200.000000 100.000000"
 preserveAspectRatio="xMidYMid meet">

<g transform="translate(0.000000,100.000000) scale(0.100000,-0.100000)"
fill="#fff" stroke="none">
<path d="M1210 975 c0 -8 17 -30 38 -50 34 -31 35 -34 15 -35 -42 0 -24 -29
49 -77 40 -26 73 -53 75 -59 3 -7 -18 -14 -54 -18 -32 -4 -110 -16 -173 -26
-63 -10 -128 -21 -145 -23 -73 -11 -274 -50 -320 -62 -122 -33 -144 -37 -156
-30 -7 5 -10 4 -6 -2 4 -6 -12 -18 -36 -27 -50 -19 -61 -20 -52 -6 4 6 -20 -1
-52 -16 -32 -14 -64 -28 -70 -31 -7 -3 -13 -9 -13 -14 0 -4 -13 -16 -29 -25
-17 -10 -27 -22 -24 -27 3 -4 -3 -7 -13 -5 -10 2 -19 -1 -19 -7 0 -5 -28 -37
-61 -70 -34 -33 -68 -74 -76 -90 -21 -42 -30 -85 -18 -85 5 0 10 6 10 13 0 6
13 21 28 32 17 12 23 14 14 3 -10 -13 -9 -15 13 -13 25 3 35 -17 15 -30 -6 -4
-8 -10 -5 -15 3 -5 -2 -21 -12 -36 -17 -26 -17 -27 7 -43 14 -9 31 -23 40 -31
18 -18 64 -20 81 -3 8 8 8 20 -2 46 -12 33 -11 39 14 75 15 21 47 54 72 72 51
38 55 45 23 37 -17 -4 -12 4 22 34 73 64 291 162 359 161 14 0 31 4 36 8 10 7
49 16 115 26 23 4 30 2 22 -4 -10 -7 -5 -11 18 -16 18 -3 44 -6 59 -5 23 0 24
1 6 8 -20 8 -20 8 1 15 12 3 29 3 39 0 12 -5 16 -4 12 3 -8 13 32 24 85 25 18
0 38 4 43 8 17 12 104 20 110 10 3 -6 17 -10 31 -10 40 0 27 -20 -13 -21 l-38
-1 33 -9 c17 -5 32 -13 32 -17 0 -4 -45 -30 -99 -57 -55 -27 -98 -52 -95 -57
3 -4 -1 -5 -9 -2 -8 3 -20 -2 -27 -11 -11 -13 -10 -15 3 -10 26 11 28 -12 2
-29 -36 -24 -32 -39 8 -30 17 4 46 8 62 9 17 1 49 11 73 23 23 13 77 36 120
51 220 81 269 101 296 115 17 8 70 27 118 42 64 20 87 31 84 41 -3 8 4 17 18
23 16 6 23 16 21 27 -1 10 3 24 9 32 9 12 8 13 -7 8 -11 -4 -20 -1 -23 8 -4 9
-19 15 -39 15 -18 0 -44 9 -58 20 -14 11 -29 20 -34 20 -4 0 -35 17 -68 37
-33 20 -98 53 -145 74 -47 21 -84 41 -83 46 1 5 -13 10 -30 10 -18 1 -69 17
-114 37 -89 39 -113 44 -113 21z m-700 -429 c0 -2 -7 -7 -16 -10 -8 -3 -12 -2
-9 4 6 10 25 14 25 6z m-258 -168 c-16 -28 -67 -56 -80 -43 -3 3 87 74 95 75
2 0 -5 -14 -15 -32z m-107 -107 c-3 -6 -11 -11 -17 -11 -6 0 -6 6 2 15 14 17
26 13 15 -4z"/>
<path d="M1138 435 c-26 -14 -49 -29 -52 -34 -5 -7 97 43 113 56 14 11 -21 -2
-61 -22z"/>
<path d="M1045 380 c-3 -6 1 -7 9 -4 18 7 21 14 7 14 -6 0 -13 -4 -16 -10z"/>
<path d="M94 335 c-9 -14 -15 -28 -12 -30 2 -2 12 9 22 25 21 36 13 40 -10 5z"/>
</g>
</svg>
