<?xml version="1.0" standalone="no"?>
<!DOCTYPE svg PUBLIC "-//W3C//DTD SVG 20010904//EN"
 "http://www.w3.org/TR/2001/REC-SVG-20010904/DTD/svg10.dtd">
<svg version="1.0" xmlns="http://www.w3.org/2000/svg"
 width="512.000000pt" height="512.000000pt" viewBox="0 0 512.000000 512.000000"
 preserveAspectRatio="xMidYMid meet">

<g transform="translate(0.000000,512.000000) scale(0.100000,-0.100000)"
fill="#FFFFFF" stroke="none">
<path d="M4435 4464 c-16 -8 -394 -378 -840 -822 -1562 -1556 -1616 -1609
-1660 -1622 -91 -26 -70 -44 -666 563 -298 303 -556 560 -573 570 -41 23 -113
22 -151 -2 -57 -36 -510 -452 -527 -484 -21 -39 -22 -87 -4 -132 18 -43 887
-956 1409 -1482 343 -345 395 -393 432 -402 92 -23 -17 -124 1676 1561 1184
1178 1561 1559 1573 1589 40 100 26 123 -257 406 -132 134 -256 250 -273 258
-41 19 -101 19 -139 -1z"/>
</g>
</svg>
