<?xml version="1.0" encoding="UTF-8"?>
<!DOCTYPE svg PUBLIC "-//W3C//DTD SVG 1.1//EN" "http://www.w3.org/Graphics/SVG/1.1/DTD/svg11.dtd">
<!-- Creator: CorelDRAW 2019 (64-Bit) -->
<svg xmlns="http://www.w3.org/2000/svg" xml:space="preserve" width="66.1458mm" height="66.1458mm" version="1.1" style="shape-rendering:geometricPrecision; text-rendering:geometricPrecision; image-rendering:optimizeQuality; fill-rule:evenodd; clip-rule:evenodd"
viewBox="0 0 6614.58 6614.58"
 xmlns:xlink="http://www.w3.org/1999/xlink"
 xmlns:xodm="http://www.corel.com/coreldraw/odm/2003">
 <defs>
  <style type="text/css">
   <![CDATA[
    .str0 {stroke:#2B2A29;stroke-width:20;stroke-miterlimit:22.9256}
    .fil0 {fill:#2B2A29}
   ]]>
  </style>
 </defs>
 <g id="Слой_x0020_1">
  <metadata id="CorelCorpID_0Corel-Layer"/>
  <path class="fil0 str0" d="M253.57 471.8c5.46,-153 54.64,-224.05 196.72,-229.51 759.58,5.46 1428.99,10.93 2188.56,16.39 100.18,-9.1 80.16,85.6 79.24,694 -548.28,1.82 -1096.56,3.64 -1644.84,5.47 -71.95,2.28 -109.74,53.73 -109.29,109.29 0,551.91 0,1103.84 0,1655.76 -770.5,0 -724.06,26.87 -721.32,-110.66 3.64,-752.29 7.28,-1388.45 10.93,-2140.74z"/>
  <path class="fil0 str0" d="M6130.81 256.6c153,5.46 224.05,54.64 229.51,196.72 -5.46,759.58 -10.93,1428.99 -16.39,2188.56 9.1,100.18 -85.6,80.16 -694,79.24 -1.82,-548.28 -3.64,-1096.56 -5.47,-1644.84 -2.28,-71.95 -53.73,-109.74 -109.29,-109.29 -551.91,0 -1103.84,0 -1655.76,0 0,-770.5 -26.87,-724.06 110.66,-721.32 752.29,3.64 1388.45,7.28 2140.74,10.93z"/>
  <path class="fil0 str0" d="M6361.22 6160.3c-5.46,153 -54.64,224.05 -196.72,229.51 -759.58,-5.46 -1428.99,-10.93 -2188.56,-16.39 -100.18,9.1 -80.16,-85.6 -79.24,-694 548.28,-1.82 1096.56,-3.64 1644.84,-5.47 71.95,-2.28 109.74,-53.73 109.29,-109.29 0,-551.91 0,-1103.84 0,-1655.76 770.5,0 724.06,-26.87 721.32,110.66 -3.64,752.29 -7.28,1388.45 -10.93,2140.74z"/>
  <path class="fil0 str0" d="M483.98 6375.5c-153,-5.46 -224.05,-54.64 -229.51,-196.72 5.46,-759.58 10.93,-1428.99 16.39,-2188.56 -9.1,-100.18 85.6,-80.16 694,-79.24 1.82,548.28 3.64,1096.56 5.47,1644.84 2.28,71.95 53.73,109.74 109.29,109.29 551.91,0 1103.84,0 1655.76,0 0,770.5 26.87,724.06 -110.66,721.32 -752.29,-3.64 -1388.45,-7.28 -2140.74,-10.93z"/>
 </g>
</svg>
