<?xml version="1.0" encoding="UTF-8"?>
<!DOCTYPE svg PUBLIC "-//W3C//DTD SVG 1.1//EN" "http://www.w3.org/Graphics/SVG/1.1/DTD/svg11.dtd">
<!-- Creator: CorelDRAW 2019 (64-Bit) -->
<svg xmlns="http://www.w3.org/2000/svg" xml:space="preserve" width="66.1458mm" height="66.1458mm" version="1.1" style="shape-rendering:geometricPrecision; text-rendering:geometricPrecision; image-rendering:optimizeQuality; fill-rule:evenodd; clip-rule:evenodd"
viewBox="0 0 6614.58 6614.58"
 xmlns:xlink="http://www.w3.org/1999/xlink"
 xmlns:xodm="http://www.corel.com/coreldraw/odm/2003">
 <defs>
  <style type="text/css">
   <![CDATA[
    .fil0 {fill:black}
    .fil1 {fill:#9C9C9C}
   ]]>
  </style>
 </defs>
 <g id="Слой_x0020_1">
  <metadata id="CorelCorpID_0Corel-Layer"/>
  <g>
   <path class="fil0" d="M3134.8 4438.64c-36.64,-32.56 -67.21,-52.2 -96.94,-90.37 -246.66,-316.65 -28.05,-752.65 338.37,-754.23 340.88,-1.47 526.99,361.23 409.85,637.91 -57.9,136.77 -110.22,148.39 -167.53,207.26l285.55 840.6 -1051.52 -0.31c2.56,-40.34 272.94,-784.2 282.22,-840.86zm1162 -1528.67c-5.45,4.72 -0.23,5.77 -24.22,6.18 -9.26,0.16 -19.7,-0.37 -29.19,-0.39l-173.43 0c-531.26,0 -1087.83,-6.62 -1612.78,0.1 -7.71,-32.2 -3.33,-777.44 -1.39,-900.46 0.28,-18.02 -1.13,-40.67 5.1,-54.41 -12.29,-123.4 57.75,-359.71 115.07,-476.31 69.8,-142.01 159.99,-245.81 265.86,-326.3 241.49,-183.58 614.49,-232.42 933.69,-91.42 256.9,113.49 437.65,356.96 497.62,687.25 32.96,181.5 23.46,380.76 23.74,569.51 0.28,191.24 7.32,180.15 -0.07,369.62l0 216.63zm782.06 -211.87c-7.23,-34.18 -2.38,-217.8 -2.38,-287.66 0,-488.02 22.96,-877.83 -219.51,-1312.1 -246.52,-441.53 -647.43,-689.71 -1132.69,-775.35 -24.11,-4.25 -93.75,-10.09 -111.41,-17.83l-426.63 0c-13.13,5 -86.16,12.64 -106.91,15.92 -794.83,125.68 -1370.61,726.14 -1400.18,1564.25 -4.11,116.52 7.64,1001.93 -4.84,1024.45 -6.57,7.16 -57.06,3.94 -84.66,7.27 -158.91,19.17 -339.57,107.89 -433.47,231.35 -58.69,77.15 -89.77,166.47 -91.26,288.14 -1.55,126.52 -0.07,254.01 -0.07,380.63 0,507.45 0,1014.91 0,1522.36 0,126.88 -9.14,235.86 33.12,346.46 69.04,180.64 233.05,288.87 405.17,356 121.02,47.21 206.3,34.59 345.92,34.59l3044.71 0c120.1,0 250.99,13.03 361.64,-19.28 98.96,-28.9 187.86,-73.12 250.62,-129.59 170.83,-153.74 183.46,-279.82 183.46,-578.55 0,-507.45 0,-1014.9 0,-1522.35 0,-126.31 2.17,-254.53 -0.24,-380.6 -6.32,-330.91 -269.56,-550.87 -610.39,-531.48l0 -216.63z"/>
  </g>
  <path class="fil1" d="M4296.8 2909.97l-1838.04 0.62 2.13 -949.6c-6.23,13.74 -4.82,36.39 -5.1,54.41 -1.94,123.02 -6.32,868.26 1.39,900.46 524.95,-6.72 1081.52,-0.1 1612.78,-0.1l173.43 0c9.49,0.02 19.93,0.55 29.19,0.39 23.99,-0.41 18.77,-1.46 24.22,-6.18z"/>
 </g>
</svg>
