<?xml version="1.0" encoding="UTF-8"?>
<!DOCTYPE svg PUBLIC "-//W3C//DTD SVG 1.1//EN" "http://www.w3.org/Graphics/SVG/1.1/DTD/svg11.dtd">
<svg xmlns="http://www.w3.org/2000/svg" version="1.1" width="200px" height="200px" style="shape-rendering:geometricPrecision; text-rendering:geometricPrecision; image-rendering:optimizeQuality; fill-rule:evenodd; clip-rule:evenodd" xmlns:xlink="http://www.w3.org/1999/xlink">
<g><path style="opacity:1" fill="#fefefe" d="M 90.5,8.5 C 134.614,5.61347 155.614,26.2801 153.5,70.5C 145.167,70.5 136.833,70.5 128.5,70.5C 130.399,58.3901 127.899,47.3901 121,37.5C 109.785,28.16 97.9516,27.3267 85.5,35C 79.8026,39.8922 76.3026,46.0589 75,53.5C 74.5001,64.8284 74.3335,76.1618 74.5,87.5C 102.502,87.3334 130.502,87.5 158.5,88C 164.026,88.3421 168.193,90.8421 171,95.5C 172.967,121.159 172.967,146.826 171,172.5C 168.768,177.731 164.935,181.231 159.5,183C 121.5,183.667 83.5,183.667 45.5,183C 39.1587,181.325 34.6587,177.492 32,171.5C 31.3333,146.833 31.3333,122.167 32,97.5C 36.0118,90.9125 41.8451,87.5792 49.5,87.5C 49.3335,76.1618 49.5001,64.8284 50,53.5C 53.2032,29.1345 66.7032,14.1345 90.5,8.5 Z M 99.5,108.5 C 109.906,109.406 114.739,115.073 114,125.5C 112.545,128.613 110.712,131.446 108.5,134C 111.068,141.871 113.735,149.704 116.5,157.5C 106.517,158.666 96.5166,158.832 86.5,158C 89.4592,150.289 92.1259,142.456 94.5,134.5C 85.4112,123.612 87.0779,114.946 99.5,108.5 Z"/></g>
</svg>
